<svg width="25" height="28" viewBox="0 0 25 28" fill="none" xmlns="http://www.w3.org/2000/svg">
<path d="M12.75 28L0.5 21.0035V6.99649L12.75 0L25 6.99649V21.0035L12.75 28ZM2.6292 19.7812L12.75 25.5695L22.8708 19.7812V8.21877L12.75 2.43051L2.6292 8.21877V19.7812Z" fill="#FFA600"/>
<path fill-rule="evenodd" clip-rule="evenodd" d="M13.2722 20.2611C14.1339 20.2611 14.9673 20.135 15.7866 19.8689C16.6059 19.6169 17.3122 19.2387 17.9196 18.7625V14.0708H15.829V17.7402C15.1227 18.1463 14.3175 18.3424 13.3852 18.3424C12.5659 18.3424 11.8172 18.1603 11.1674 17.8102C10.5176 17.446 10.009 16.9559 9.64176 16.3256C9.27448 15.6954 9.09084 14.9951 9.09084 14.2108C9.09084 13.3985 9.27448 12.6843 9.64176 12.054C10.009 11.4238 10.5176 10.9336 11.1674 10.5975C11.8172 10.2474 12.5659 10.0793 13.3993 10.0793C14.6706 10.0793 15.7725 10.5275 16.6765 11.4238L18.0609 10.0793C17.51 9.44907 16.8178 8.97289 16.0126 8.65077C15.1933 8.32865 14.2892 8.16059 13.3004 8.16059C12.0856 8.16059 10.9837 8.42669 10.009 8.94488C9.03434 9.46308 8.27153 10.1913 7.70649 11.1017C7.15557 12.026 6.87305 13.0624 6.87305 14.2108C6.87305 15.3593 7.15557 16.3957 7.70649 17.32C8.2574 18.2443 9.02021 18.9586 9.99491 19.4768C10.9837 19.995 12.0714 20.2611 13.2722 20.2611Z" fill="#FFA600"/>
</svg>
