<svg width="137" height="40" viewBox="0 0 137 40" fill="none" xmlns="http://www.w3.org/2000/svg">
<path d="M22.4184 39.9999C17.8165 39.9999 13.3503 38.359 9.84641 35.3856C6.37955 32.4492 4.04774 28.3777 3.27047 23.9238L3.08541 22.8874L4.13411 22.8381C5.35553 22.7764 6.30552 21.777 6.30552 20.5556C6.30552 19.3342 5.35553 18.3348 4.13411 18.2731L3.08541 18.2238L3.27047 17.1874C4.04774 12.7335 6.37955 8.67436 9.84641 5.72564C13.3503 2.75225 17.8165 1.11133 22.4184 1.11133C24.5898 1.11133 26.7242 1.46912 28.7599 2.17237L29.7593 2.51783L29.2781 3.46784C28.5749 4.87434 29.0684 6.60162 30.4255 7.41591C31.758 8.21787 33.5099 7.86007 34.4229 6.60162L35.0398 5.75032L35.8047 6.47825C39.691 10.1796 41.8378 15.1764 41.8378 20.5433C41.8378 25.9349 39.5676 31.1167 35.6196 34.7934L34.9164 35.4473L34.2872 34.7193C33.769 34.1148 32.8807 34.0037 32.2391 34.4602C31.5852 34.9167 31.3878 35.8051 31.7826 36.496L32.2638 37.3349L31.4125 37.7791C28.6612 39.235 25.5522 39.9999 22.4184 39.9999ZM5.2815 24.516C6.12046 28.1927 8.14382 31.5239 11.0432 33.9791C14.2139 36.6687 18.2483 38.1492 22.4184 38.1492C24.9723 38.1492 27.5262 37.5817 29.821 36.5206C29.5125 35.2005 30.006 33.794 31.1781 32.9674C32.3378 32.1531 33.8183 32.1531 34.9534 32.881C38.1612 29.6115 39.9871 25.1699 39.9871 20.5679C39.9871 16.0277 38.2969 11.7711 35.2001 8.50163C33.6456 9.85879 31.3015 10.1179 29.4755 9.01982C27.6125 7.89708 26.7489 5.68863 27.2547 3.6529C25.6879 3.20874 24.0593 2.97433 22.4061 2.97433C18.2483 2.97433 14.2016 4.45486 11.0308 7.14448C8.13148 9.59969 6.10812 12.9432 5.26916 16.6075C6.94707 17.1381 8.15616 18.7049 8.15616 20.5556C8.15616 22.4063 6.95941 23.9855 5.2815 24.516Z" fill="url(#paint0_angular)"/>
<path d="M32.0195 9.753C31.1693 9.753 30.3069 9.5307 29.5183 9.0614C28.4095 8.39451 27.6209 7.32006 27.3006 6.06036C26.9802 4.80067 27.1774 3.49157 27.855 2.36772C28.5203 1.25622 29.5923 0.465825 30.849 0.144726C32.1057 -0.164023 33.4117 0.0212265 34.5329 0.700475C35.6418 1.36737 36.4303 2.44182 36.7507 3.70152C37.071 4.96122 36.8739 6.27031 36.1962 7.39416C35.2845 8.9132 33.6705 9.753 32.0195 9.753ZM32.0318 1.86137C31.7854 1.86137 31.539 1.88607 31.2925 1.94782C30.5163 2.14542 29.851 2.62707 29.4321 3.31867C29.0132 4.01027 28.9023 4.82536 29.0871 5.60341C29.2842 6.38146 29.7648 7.04836 30.4547 7.46826C31.8839 8.32041 33.7321 7.86346 34.5945 6.43086C35.0134 5.73926 35.1243 4.92416 34.9395 4.14612C34.7547 3.36807 34.2619 2.70117 33.5719 2.28127C33.1037 2.00957 32.5739 1.86137 32.0318 1.86137Z" fill="#FFA600"/>
<path d="M4.0727 24.6913C1.82654 24.6913 0 22.8641 0 20.6172C0 18.3703 1.82654 16.5432 4.0727 16.5432C6.31885 16.5432 8.1454 18.3703 8.1454 20.6172C8.1454 22.8641 6.31885 24.6913 4.0727 24.6913ZM4.0727 18.395C2.85089 18.395 1.85123 19.395 1.85123 20.6172C1.85123 21.8394 2.85089 22.8394 4.0727 22.8394C5.29451 22.8394 6.29417 21.8394 6.29417 20.6172C6.29417 19.395 5.29451 18.395 4.0727 18.395Z" fill="#FFA600"/>
<path d="M33.0737 39.0123C32.0211 39.0123 30.9806 38.5225 30.3441 37.5918C29.2915 36.0856 29.6587 34.0038 31.1642 32.9507C31.8987 32.4364 32.78 32.2405 33.649 32.3996C34.5303 32.5588 35.2892 33.0364 35.8033 33.7712C36.3174 34.5059 36.5133 35.3876 36.3541 36.257C36.195 37.1265 35.7176 37.898 34.9832 38.4123C34.3957 38.8164 33.7347 39.0123 33.0737 39.0123ZM33.0615 34.1875C32.7555 34.1875 32.4617 34.2855 32.2047 34.4569C31.5314 34.9345 31.3601 35.8652 31.8375 36.5387C32.3148 37.2122 33.2451 37.3836 33.9183 36.9061C34.2488 36.6734 34.4691 36.3305 34.5303 35.9386C34.6038 35.5468 34.5058 35.1427 34.2855 34.8243C34.0652 34.5059 33.7102 34.2732 33.3185 34.212C33.2451 34.1875 33.1472 34.1875 33.0615 34.1875Z" fill="#FFA600"/>
<path d="M22.6461 32.8402L11.9707 26.7013V14.4113L22.6461 8.27246L33.3215 14.4113V26.7013L22.6461 32.8402ZM13.8262 25.6289L22.6461 30.7076L31.466 25.6289V15.4837L22.6461 10.405L13.8262 15.4837V25.6289Z" fill="#FFA600"/>
<path fill-rule="evenodd" clip-rule="evenodd" d="M23.1011 26.0498C23.852 26.0498 24.5783 25.9392 25.2923 25.7057C26.0063 25.4845 26.6219 25.1528 27.1512 24.735V20.6183H25.3293V23.8379C24.7137 24.1943 24.0121 24.3663 23.1996 24.3663C22.4856 24.3663 21.8331 24.2065 21.2669 23.8993C20.7006 23.5798 20.2574 23.1497 19.9373 22.5968C19.6173 22.0438 19.4572 21.4294 19.4572 20.7412C19.4572 20.0285 19.6173 19.4018 19.9373 18.8488C20.2574 18.2958 20.7006 17.8657 21.2669 17.5708C21.8331 17.2636 22.4856 17.1161 23.2119 17.1161C24.3198 17.1161 25.28 17.5094 26.0679 18.2958L27.2743 17.1161C26.7942 16.5632 26.191 16.1453 25.4893 15.8627C24.7753 15.5801 23.9874 15.4326 23.1257 15.4326C22.067 15.4326 21.1068 15.6661 20.2574 16.1208C19.408 16.5754 18.7432 17.2144 18.2508 18.0132C17.7707 18.8242 17.5245 19.7336 17.5245 20.7412C17.5245 21.7489 17.7707 22.6582 18.2508 23.4692C18.7309 24.2803 19.3957 24.907 20.2451 25.3617C21.1068 25.8163 22.0547 26.0498 23.1011 26.0498Z" fill="#FFA600"/>
<path d="M58.3563 20.2153H60.6867V24.6888C60.0884 25.1403 59.3955 25.4868 58.6082 25.7284C57.8209 25.9699 57.0283 26.0907 56.2305 26.0907C55.0863 26.0907 54.0575 25.8491 53.1442 25.3661C52.2309 24.8725 51.5119 24.1952 50.987 23.3341C50.4726 22.4625 50.2154 21.4807 50.2154 20.3886C50.2154 19.2965 50.4726 18.3199 50.987 17.4588C51.5119 16.5872 52.2362 15.9099 53.16 15.4268C54.0838 14.9333 55.123 14.6865 56.2778 14.6865C57.2435 14.6865 58.1201 14.8493 58.9074 15.1748C59.6947 15.5004 60.3561 15.9729 60.8915 16.5925L59.2538 18.1046C58.4665 17.275 57.5165 16.8602 56.4037 16.8602C55.7004 16.8602 55.0758 17.0073 54.5299 17.3013C53.984 17.5953 53.5589 18.0101 53.2545 18.5457C52.95 19.0812 52.7978 19.6955 52.7978 20.3886C52.7978 21.0712 52.95 21.6802 53.2545 22.2158C53.5589 22.7513 53.9788 23.1714 54.5142 23.4759C55.06 23.7699 55.6794 23.9169 56.3722 23.9169C57.1071 23.9169 57.7684 23.7594 58.3563 23.4444V20.2153Z" fill="white"/>
<path d="M72.5986 25.9016L70.4729 22.8301H68.1267V25.9016H65.5758V14.8755H70.3469C71.3232 14.8755 72.1682 15.0383 72.8821 15.3638C73.6064 15.6894 74.1628 16.1514 74.5512 16.75C74.9396 17.3485 75.1338 18.0574 75.1338 18.8764C75.1338 19.6955 74.9343 20.4043 74.5354 21.0029C74.147 21.591 73.5907 22.0425 72.8663 22.3575L75.3385 25.9016H72.5986ZM72.5514 18.8764C72.5514 18.2569 72.3519 17.7843 71.953 17.4588C71.5541 17.1228 70.9715 16.9547 70.2052 16.9547H68.1267V20.7981H70.2052C70.9715 20.7981 71.5541 20.6301 71.953 20.2941C72.3519 19.958 72.5514 19.4855 72.5514 18.8764Z" fill="white"/>
<path d="M86.9334 23.5389H81.8158L80.8395 25.9016H78.2256L83.1385 14.8755H85.6579L90.5865 25.9016H87.9096L86.9334 23.5389ZM86.1303 21.6015L84.3825 17.38L82.6346 21.6015H86.1303Z" fill="white"/>
<path d="M104.247 14.8755L99.476 25.9016H96.9566L92.2011 14.8755H94.9568L98.3107 22.7513L101.712 14.8755H104.247Z" fill="white"/>
<path d="M107.687 14.8755H110.238V25.9016H107.687V14.8755Z" fill="white"/>
<path d="M117.656 16.9547H114.129V14.8755H123.734V16.9547H120.207V25.9016H117.656V16.9547Z" fill="white"/>
<path d="M132.717 21.9952V25.9016H130.166V21.9637L125.899 14.8755H128.607L131.552 19.7743L134.497 14.8755H137L132.717 21.9952Z" fill="white"/>
<defs>
<radialGradient id="paint0_angular" cx="0" cy="0" r="1" gradientUnits="userSpaceOnUse" gradientTransform="translate(22.4616 20.5556) rotate(-59.5007) scale(19.2407 19.1734)">
<stop offset="0.0202683" stop-color="#FFA600" stop-opacity="0"/>
<stop offset="0.0445538" stop-color="#FFA600" stop-opacity="0"/>
<stop offset="0.177833" stop-color="#FFA600"/>
<stop offset="0.304677" stop-color="#FFA600"/>
<stop offset="0.330671" stop-color="#FFA600" stop-opacity="0"/>
<stop offset="0.349901" stop-color="#FFA600" stop-opacity="0"/>
<stop offset="0.505794" stop-color="#FFA600"/>
<stop offset="0.652195" stop-color="#FFA600"/>
<stop offset="0.679499" stop-color="#FFA600" stop-opacity="0"/>
<stop offset="0.70289" stop-color="#FFA600" stop-opacity="0"/>
<stop offset="0.832054" stop-color="#FFA600"/>
<stop offset="0.976853" stop-color="#FFA600"/>
</radialGradient>
</defs>
</svg>
